<svg width="24" height="24" viewBox="0 0 24 24" fill="none" xmlns="http://www.w3.org/2000/svg">
<path d="M5.34764 13.9402C5.6758 13.9402 5.95529 13.6845 5.98474 13.3454C6.01612 12.9867 5.75551 12.6701 5.40335 12.6384H5.40271C5.35981 12.2811 5.04285 12.029 4.68908 12.0707C4.33788 12.1148 4.08848 12.4402 4.1317 12.7976C4.20501 13.4044 4.69261 13.8837 5.29065 13.9375C5.30986 13.9395 5.32907 13.9402 5.34764 13.9402Z" fill="#3F3631"/>
<path d="M15.7489 14.8669C16.0774 14.8669 16.3569 14.6109 16.386 14.2714C16.4171 13.9124 16.1561 13.5965 15.8039 13.5648L5.40319 12.6381C5.04906 12.6049 4.7404 12.8722 4.70966 13.2309C4.6786 13.5899 4.93956 13.9059 5.29177 13.9375L15.6925 14.8643C15.7111 14.8659 15.7303 14.8669 15.7489 14.8669Z" fill="#3F3631"/>
<path d="M4.76656 13.3702C4.79281 13.3702 4.81907 13.3685 4.84564 13.3653C5.19689 13.3213 5.44632 12.9958 5.40309 12.6384L4.62599 6.21369C4.58245 5.85631 4.26066 5.60229 3.91229 5.64632C3.56105 5.69034 3.31162 6.01576 3.35484 6.37315L4.13194 12.7979C4.17165 13.1282 4.44797 13.3702 4.76656 13.3702Z" fill="#3F3631"/>
<path d="M17.4545 8.14506C17.7831 8.14506 18.0626 7.88909 18.0917 7.54964C18.1228 7.19062 17.8618 6.87465 17.5096 6.84302L4.04614 5.64337C3.69265 5.61044 3.38334 5.8775 3.3526 6.23619C3.32155 6.5952 3.5825 6.91117 3.93472 6.9428L17.3982 8.14245C17.4171 8.14408 17.436 8.14506 17.4545 8.14506Z" fill="#3F3631"/>
<path d="M17.6213 6.87072C17.937 6.87072 18.212 6.63268 18.255 6.30497V6.30432C18.6085 6.30432 18.8954 6.01248 18.8954 5.65216C18.8954 5.29184 18.6085 5 18.255 5C17.6158 5 17.0702 5.48651 16.9853 6.13182C16.9386 6.48888 17.1848 6.81692 17.5354 6.86485C17.5646 6.86876 17.5928 6.87072 17.6213 6.87072Z" fill="#3F3631"/>
<path d="M18.2553 6.30474H19.3596C19.7131 6.30474 20 6.01258 20 5.65259C20 5.29259 19.7131 5.00043 19.3596 5.00043H18.2553C17.9019 5.00043 17.615 5.29259 17.615 5.65259C17.615 6.01258 17.9015 6.30474 18.2553 6.30474Z" fill="#3F3631"/>
<path d="M16.7266 13.7037C17.0423 13.7037 17.3177 13.4657 17.3602 13.1376L18.2552 6.30461C18.3019 5.94756 18.0557 5.61952 17.7051 5.57191C17.3567 5.52365 17.0321 5.77506 16.9856 6.13212L16.091 12.9654C16.0443 13.3225 16.2905 13.6505 16.6411 13.6981C16.6699 13.7021 16.6981 13.7037 16.7266 13.7037Z" fill="#3F3631"/>
<path d="M13.8469 20C15.0616 20 16.0881 18.9546 16.0881 17.7174C16.0881 16.4803 15.0616 15.4349 13.8469 15.4349C12.6321 15.4349 11.6056 16.4803 11.6056 17.7174C11.6056 18.9546 12.6321 20 13.8469 20ZM13.8469 16.7392C14.3585 16.7392 14.8074 17.1964 14.8074 17.7174C14.8074 18.2385 14.3585 18.6957 13.8469 18.6957C13.3352 18.6957 12.8863 18.2385 12.8863 17.7174C12.8863 17.1964 13.3355 16.7392 13.8469 16.7392Z" fill="#3F3631"/>
<path d="M7.76318 20C8.97799 20 10.0045 18.9546 10.0045 17.7174C10.0045 16.4803 8.97799 15.4349 7.76318 15.4349C6.54838 15.4349 5.52185 16.4803 5.52185 17.7174C5.52185 18.9546 6.54838 20 7.76318 20ZM7.76318 16.7392C8.27485 16.7392 8.72375 17.1964 8.72375 17.7174C8.72375 18.2385 8.27485 18.6957 7.76318 18.6957C7.25152 18.6957 6.80261 18.2385 6.80261 17.7174C6.80261 17.1964 7.25184 16.7392 7.76318 16.7392Z" fill="#3F3631"/>
<path d="M15.4594 14.8359C16.4139 14.8359 17.2323 14.1192 17.3606 13.1377C17.4074 12.7806 17.1609 12.4526 16.8103 12.4053C16.4622 12.3567 16.1375 12.6088 16.0911 12.9658C16.0457 13.3124 15.737 13.5567 15.4008 13.5293C15.0406 13.498 14.7377 13.7637 14.707 14.1221C14.6759 14.4808 14.9369 14.7971 15.2887 14.8287C15.3461 14.8333 15.4034 14.8359 15.4594 14.8359Z" fill="#3F3631"/>
</svg>
