<?xml version="1.0" standalone="no"?>
<!DOCTYPE svg PUBLIC "-//W3C//DTD SVG 20010904//EN"
 "http://www.w3.org/TR/2001/REC-SVG-20010904/DTD/svg10.dtd">
<svg version="1.0" xmlns="http://www.w3.org/2000/svg"
 width="1024.000000pt" height="1024.000000pt" viewBox="0 0 1024.000000 1024.000000"
 preserveAspectRatio="xMidYMid meet">

<g transform="translate(0.000000,1024.000000) scale(0.100000,-0.100000)"
fill="#000000" stroke="none">
<path d="M6660 8513 c-80 -6 -263 -42 -355 -68 -315 -92 -608 -272 -797 -489
-194 -224 -328 -516 -373 -812 -20 -129 -23 -390 -5 -514 75 -544 397 -985
890 -1219 558 -264 1242 -245 1773 51 406 226 694 630 777 1091 52 289 32 589
-57 859 -182 551 -643 945 -1249 1067 -179 37 -410 49 -604 34z m355 -968
c117 -30 202 -81 300 -179 139 -139 199 -277 211 -481 7 -113 -12 -248 -47
-337 -59 -151 -185 -293 -324 -365 -111 -57 -195 -76 -335 -76 -138 0 -211 17
-330 74 -164 80 -300 253 -351 446 -27 101 -29 296 -6 395 35 145 99 258 204
360 99 97 218 155 366 179 71 11 239 3 312 -16z"/>
<path d="M1833 8383 c-10 -4 -13 -331 -13 -1588 0 -1392 2 -1584 15 -1595 12
-10 321 -11 1487 -5 860 4 1480 11 1491 17 16 8 17 41 17 484 l0 474 -26 10
c-16 6 -380 10 -970 10 l-944 0 0 1094 c0 988 -2 1094 -16 1100 -19 7 -1023 7
-1041 -1z"/>
<path d="M3120 4995 c-380 -55 -706 -198 -965 -422 -355 -308 -551 -829 -506
-1346 21 -251 68 -425 171 -632 173 -347 462 -608 837 -755 220 -87 404 -120
658 -120 512 1 904 149 1212 460 123 124 208 245 288 405 135 273 197 545 220
968 l7 117 -871 0 -871 0 0 -420 0 -420 343 0 342 -1 -62 -59 c-236 -224 -608
-273 -905 -118 -93 48 -211 157 -273 253 -48 73 -99 206 -116 299 -18 105 -7
324 21 411 65 204 211 385 380 470 153 76 350 101 510 63 160 -38 327 -172
424 -340 l21 -37 395 201 c217 110 399 204 404 209 10 9 -32 87 -107 199 -67
101 -270 301 -377 371 -169 112 -334 181 -544 225 -102 22 -154 26 -331 29
-145 3 -239 0 -305 -10z"/>
<path d="M6590 4995 c-367 -53 -689 -193 -940 -407 -244 -209 -432 -536 -500
-867 -29 -145 -41 -332 -29 -490 54 -758 557 -1310 1344 -1478 122 -26 145
-27 385 -28 293 0 397 14 616 86 266 86 483 217 670 403 289 289 441 646 461
1081 13 290 -48 576 -177 831 -229 451 -653 752 -1209 856 -140 26 -483 33
-621 13z m425 -960 c231 -60 418 -247 485 -485 44 -158 34 -377 -24 -521 -82
-200 -259 -357 -463 -410 -107 -27 -279 -27 -386 0 -238 62 -423 250 -489 500
-26 98 -28 295 -5 393 69 286 266 480 542 534 86 17 255 11 340 -11z"/>
</g>
</svg>
