<svg xmlns="http://www.w3.org/2000/svg" width="50" height="50" fill="none" viewBox="0 0 50 50"><path fill="#000" d="M32.52 8.433c-.391.029-1.285.205-1.734.332-1.538.449-2.969 1.328-3.892 2.387a8.008 8.008 0 0 0-1.82 3.965c-.098.63-.113 1.904-.025 2.51.366 2.656 1.938 4.81 4.346 5.952 2.724 1.29 6.064 1.196 8.657-.249a7.676 7.676 0 0 0 3.794-5.327 8.627 8.627 0 0 0-.279-4.194c-.888-2.69-3.14-4.615-6.098-5.21-.874-.181-2.002-.24-2.95-.166Zm1.733 4.726c.571.147.986.396 1.465.874.678.679.971 1.353 1.03 2.349.034.552-.058 1.21-.23 1.645-.288.738-.903 1.431-1.581 1.783-.542.278-.953.37-1.636.37-.674 0-1.03-.082-1.612-.36-.8-.391-1.464-1.236-1.713-2.178-.132-.494-.142-1.446-.03-1.93a3.47 3.47 0 0 1 .996-1.757c.484-.474 1.065-.757 1.788-.874.346-.054 1.167-.015 1.523.078ZM8.95 9.067c-.049.02-.063 1.617-.063 7.754 0 6.797.01 7.735.073 7.788.059.05 1.567.054 7.26.025 4.2-.02 7.227-.054 7.281-.083.078-.04.083-.2.083-2.363v-2.315l-.127-.049c-.078-.03-1.855-.049-4.736-.049h-4.61v-5.341c0-4.825-.01-5.342-.078-5.371-.093-.035-4.995-.035-5.083.004ZM15.234 25.61c-1.855.269-3.447.967-4.711 2.06-1.734 1.505-2.691 4.049-2.471 6.573.102 1.226.332 2.075.835 3.086.844 1.694 2.256 2.969 4.087 3.687 1.074.424 1.972.586 3.212.586 2.5-.005 4.415-.728 5.919-2.246a7.242 7.242 0 0 0 1.406-1.978c.659-1.333.962-2.661 1.074-4.727l.034-.57h-8.506v4.1h1.675l1.67.006-.303.288c-1.152 1.093-2.969 1.333-4.419.576-.454-.235-1.03-.767-1.333-1.236-.234-.356-.483-1.005-.566-1.46-.088-.512-.034-1.582.103-2.006.317-.996 1.03-1.88 1.855-2.295.747-.371 1.709-.493 2.49-.308.781.186 1.597.84 2.07 1.66l.103.18 1.929-.98c1.06-.538 1.948-.997 1.972-1.021.05-.044-.156-.425-.522-.972-.327-.493-1.318-1.47-1.84-1.811-.826-.547-1.632-.884-2.657-1.099-.498-.107-.752-.127-1.616-.142-.708-.014-1.167 0-1.49.05ZM32.178 25.61c-1.792.26-3.364.943-4.59 1.988-1.192 1.02-2.11 2.617-2.442 4.233-.141.708-.2 1.621-.141 2.393.264 3.7 2.72 6.396 6.562 7.216.596.127.708.132 1.88.137 1.43 0 1.939-.068 3.008-.42 1.299-.42 2.358-1.06 3.272-1.967 1.41-1.412 2.153-3.155 2.25-5.279a8.171 8.171 0 0 0-.864-4.058c-1.118-2.202-3.188-3.671-5.903-4.18-.684-.126-2.358-.16-3.032-.063Zm2.075 4.688c1.128.293 2.041 1.206 2.368 2.368.215.772.166 1.84-.117 2.544-.4.977-1.265 1.743-2.26 2.002-.523.132-1.363.132-1.886 0-1.162-.303-2.065-1.22-2.387-2.442-.127-.478-.137-1.44-.025-1.918.337-1.397 1.3-2.344 2.647-2.608.42-.083 1.245-.054 1.66.054Z"/></svg>